<?xml version="1.0" standalone="no"?>
<!DOCTYPE svg PUBLIC "-//W3C//DTD SVG 20010904//EN"
 "http://www.w3.org/TR/2001/REC-SVG-20010904/DTD/svg10.dtd">
<svg version="1.0" xmlns="http://www.w3.org/2000/svg"
 width="2083.000000pt" height="2083.000000pt" viewBox="0 0 2083.000000 2083.000000"
 preserveAspectRatio="xMidYMid meet">
<metadata>
Created by potrace 1.11, written by Peter Selinger 2001-2013
</metadata>
<g transform="translate(0.000000,2083.000000) scale(0.100000,-0.100000)"
fill="#000000" stroke="none">
<path d="M10065 20809 c-2040 -64 -4028 -739 -5700 -1934 -484 -346 -858 -666
-1315 -1124 -678 -679 -1201 -1364 -1678 -2196 -120 -210 -379 -722 -476 -945
-742 -1691 -1021 -3531 -815 -5375 259 -2324 1313 -4508 2979 -6175 1723
-1723 3978 -2783 6395 -3004 460 -43 1173 -55 1585 -28 1716 114 3283 599
4730 1466 1308 783 2444 1866 3295 3140 273 409 459 731 684 1186 883 1782
1231 3800 1000 5800 -313 2714 -1694 5203 -3841 6921 -1571 1256 -3456 2024
-5463 2224 -243 24 -422 35 -730 45 -314 10 -299 10 -650 -1z m890 -3075
c2241 -158 4301 -1356 5562 -3237 660 -984 1064 -2092 1197 -3282 45 -401 55
-999 22 -1375 -117 -1366 -562 -2592 -1336 -3680 -1127 -1584 -2838 -2660
-4751 -2984 -430 -73 -759 -100 -1229 -100 -354 0 -514 8 -805 40 -1470 161
-2849 758 -3969 1717 -1035 888 -1794 2024 -2215 3319 -422 1299 -470 2717
-135 4050 282 1128 820 2155 1593 3043 142 163 456 480 626 633 1183 1060
2647 1699 4235 1847 372 35 789 38 1205 9z"/>
<path d="M10095 16963 c-489 -29 -885 -89 -1310 -198 -2404 -614 -4273 -2563
-4784 -4990 -156 -741 -182 -1546 -75 -2295 247 -1722 1165 -3269 2559 -4314
744 -558 1591 -949 2495 -1152 514 -115 972 -160 1550 -151 369 6 529 18 840
63 2539 367 4644 2208 5353 4684 111 386 187 804 229 1245 18 189 18 931 0
1120 -18 191 -56 472 -87 640 -378 2040 -1725 3802 -3598 4705 -906 437 -1878
655 -2887 648 -129 -1 -257 -3 -285 -5z m635 -603 c1675 -95 3193 -856 4266
-2140 626 -749 1067 -1671 1258 -2630 87 -436 110 -680 110 -1175 0 -434 -13
-611 -69 -955 -176 -1065 -617 -2034 -1302 -2856 -940 -1128 -2272 -1876
-3714 -2084 -487 -70 -1055 -79 -1534 -24 -1635 186 -3102 1029 -4097 2351
-981 1306 -1380 2975 -1098 4590 274 1566 1154 2946 2465 3864 891 624 1969
996 3065 1058 201 12 453 12 650 1z"/>
<path d="M7477 14129 c-166 -17 -293 -67 -378 -146 -107 -99 -142 -192 -143
-368 0 -96 4 -134 22 -191 40 -129 129 -221 261 -266 59 -20 85 -23 236 -23
118 0 201 6 270 18 55 9 147 18 205 20 101 2 107 1 160 -29 93 -52 152 -155
187 -327 15 -75 17 -271 20 -2292 4 -2241 2 -2408 -32 -2553 -31 -130 -89
-220 -174 -270 -45 -26 -50 -27 -191 -25 -82 0 -184 8 -234 17 -110 20 -299
20 -389 1 -174 -37 -286 -144 -328 -315 -17 -71 -17 -239 0 -310 59 -238 244
-362 566 -376 105 -5 163 0 465 40 190 25 408 51 485 57 165 13 522 7 840 -15
856 -60 1229 -79 1580 -80 371 -1 497 7 755 45 702 105 1249 368 1665 800 295
307 459 640 532 1084 25 154 25 538 0 675 -72 389 -222 686 -476 939 -110 110
-192 175 -368 294 -149 101 -231 146 -377 208 l-89 37 61 31 c350 176 622 430
761 709 174 347 209 885 85 1316 -102 356 -318 648 -647 874 -116 80 -357 199
-510 251 -199 68 -445 122 -692 150 -359 42 -1003 34 -1630 -19 -503 -43 -644
-51 -990 -57 -423 -7 -518 0 -941 62 -309 46 -400 52 -567 34z m3803 -973
c531 -81 819 -290 922 -667 20 -75 23 -105 22 -274 0 -163 -4 -201 -22 -270
-118 -431 -480 -671 -1148 -762 -111 -15 -212 -18 -734 -18 -636 0 -663 2
-751 46 -29 14 -39 27 -47 61 -32 126 -37 238 -37 833 0 539 2 609 18 688 38
188 93 270 197 300 124 36 341 63 612 77 262 13 844 5 968 -14z m-120 -2966
c767 -55 1211 -314 1368 -800 70 -214 71 -572 2 -820 -28 -100 -116 -279 -178
-360 -200 -264 -543 -435 -1008 -504 -209 -31 -391 -39 -774 -33 -568 9 -801
37 -930 114 -64 37 -107 136 -136 313 -15 92 -18 204 -21 889 -5 852 0 991 40
1071 34 69 126 112 275 130 101 11 1196 11 1362 0z"/>
</g>
</svg>
